# xmcd
#
# Track frame offsets: 
#        150
#        16352
#        34476
#        51648
#        68320
#        83760
#        105217
#        124428
#        144247
#        162152
#        179298
#
# Disc length: 2590 seconds
#
# Revision: 0
# Processed by: cddbd v1.5.2PL0 Copyright (c) Steve Scherf et al.
# Submitted via: ExactAudioCopy v1.3
#
DISCID=8c0a1c0b
DTITLE=Mark Cameron - Just The Way You Like It
DYEAR=2012
DGENRE=Contemporary Country
TTITLE0=Black Coffee
TTITLE1=What's One More Day
TTITLE2=Small Town Politics
TTITLE3=She's The River
TTITLE4=Damn That Dress
TTITLE5=It Still Hurts
TTITLE6=Just The Way You Like It
TTITLE7=Wouldn't Mama Be Proud
TTITLE8=My Greatest Claim To Fame
TTITLE9=You Move Me
TTITLE10=Tell Me Now That I Ain't Country
EXTD=
EXTT0=
EXTT1=
EXTT2=
EXTT3=
EXTT4=
EXTT5=
EXTT6=
EXTT7=
EXTT8=
EXTT9=
EXTT10=
PLAYORDER=
